<?xml version="1.0" encoding="utf-8"?>
<!-- Generator: Adobe Illustrator 19.0.1, SVG Export Plug-In . SVG Version: 6.00 Build 0)  -->
<svg version="1.1" xmlns="http://www.w3.org/2000/svg" xmlns:xlink="http://www.w3.org/1999/xlink" x="0px" y="0px"
	 viewBox="0 0 506.2 215" style="enable-background:new 0 0 506.2 215;" xml:space="preserve">
<style type="text/css">
	.st0{fill-rule:evenodd;clip-rule:evenodd;fill:#FFFFFF;}
	.st1{fill-rule:evenodd;clip-rule:evenodd;}
	.st2{fill-rule:evenodd;clip-rule:evenodd;fill:none;}
	.st3{fill-rule:evenodd;clip-rule:evenodd;fill:#E8B256;}
</style>
<g id="Layer_1">
	<g>
		<path class="st0" d="M-314.7-26.4c21.1,0,42.2,0,63.4,0c0,29.4,0,58.8,0,88.2c-21.1,0-42.2,0-63.4,0
			C-314.7,32.4-314.7,3-314.7-26.4z M-272,52.1c1.8,0,3.6,0,5.4,0c0,0,0,0,0,0C-268.4,52.1-270.2,52.1-272,52.1
			c-0.2-0.1-0.4-0.2-0.6-0.2c-2-0.1-4-0.1-6-0.2c-1.4-0.1-2.9-0.1-4.3-0.2c0-0.1,0-0.1,0-0.2c3.3,0,6.5,0,9.8,0c0-0.1,0-0.2,0-0.3
			c-6.3-0.6-12.7-0.1-19.1-0.5c6.1-0.1,12.2-0.2,18.3-0.3c0-0.1,0-0.1,0-0.2c-0.9-0.4-2.2,0.4-2.7-0.6c-0.6,0-1.1,0-1.7,0
			c-0.6-0.1-1.2-0.3-1.8-0.3c-3.1,0-6.3,0-9.4,0c-3.8,0-7.7,0-11.5,0c-1.3,0-2.7,0-4,0c12.3-0.8,24.6-0.7,36.9,0
			c-0.6-0.1-1.3-0.3-1.9-0.4c0-0.1,0-0.1,0-0.2c0.7,0,1.3,0,2,0c0-0.1,0.1-0.1,0.1-0.2c-0.1-0.1-0.3-0.1-0.6-0.2
			c0.5,0,0.8,0,1.1-0.1c-0.1-0.1-0.3-0.2-0.4-0.4c0.1-0.1,0.2-0.2,0.2-0.2c0.1,0,0.3,0,0.4,0c1.6,0.5,3.2-0.3,4.7,0
			c-1.7-0.2-3.5-0.5-5.2-0.7c0-0.1,0-0.2,0-0.3c2.4,0,4.7,0,7.1,0c0,0,0,0,0,0c-0.4-0.1-0.8-0.1-1.3-0.2c0,0,0-0.1,0-0.1
			c0.5,0,1.1,0,1.6,0c0,0,0-0.1,0-0.1c-1-0.1-2.1-0.3-3.1-0.4c1.5-0.3,2.9,0.4,4.4-0.2c0.8-0.3,1.9,0,2.8,0.1c0.3,0,0.5,0,0.8,0.1
			c0-0.1,0-0.2,0-0.2c-0.4-0.1-1,0-1.2-0.3c-0.7-0.8-1.6-0.7-2.4-0.9c-1.3-0.3-2.7-0.4-4-0.7c-0.9-0.2-1.8-0.6-2.7-0.7
			c-1.1-0.2-2.2-0.2-3.2-0.3c-0.2,0-0.5-0.1-0.7-0.2c0-0.1,0-0.1,0-0.2c2.8,0.2,5.7,0.3,8.5,0.5c-8.1-1.9-16.3-1.7-24.5-2
			c0-0.1,0-0.1,0-0.2c6.8,0.2,13.5,0.4,20.3,0.6c0,0,0,0,0-0.1c-2.2-0.2-4.3-0.5-6.5-0.7c0,0,0-0.1,0-0.1c0.5,0,1,0,1.4,0
			c0-0.1,0-0.2,0-0.3c-1.8-0.1-3.5-0.2-5.2-0.3c0.6,0,1.2-0.1,1.9-0.1c-2.5,0-4.8,0-7.1,0c0,0,0-0.1,0-0.1c0.7,0,1.3,0,2,0
			c-1.6-0.1-3.1-0.3-4.7-0.3c-8.3,0-16.6,0-24.9,0c-1,0-1.3,0.6-1.9,1.2c0.4,0.1,0.7,0.2,0.9,0.3c0,0,0,0.1,0,0.1
			c-0.3,0-0.7,0.1-1.1,0.1c0,0,0,0.1,0,0.1c0.2,0.1,0.5,0.2,0.9,0.3c-0.4,0.3-0.8,0.6-1.2,0.9c0.3,0,0.5,0.1,0.7,0.1
			c0,0,0,0.1,0,0.1c-0.3,0.1-0.6,0.3-1.1,0.5c0.1,0.4,0.4,0.9,0.4,1.4c0,0.5-0.3,1,0.4,1.1c-0.2,0.2-0.4,0.4-0.7,0.6
			c0.2,0.1,0.4,0.2,0.7,0.3c-1.1,0.4-0.3,1.2-0.3,1.5c0.4,1.5,1.8,1.1,2.8,1.3c-0.1,0.4-0.1,0.9-0.2,1.4c1.5,0,3.1,0,4.7,0
			c0,0.1,0,0.1,0,0.2c-1.5,0.1-3,0.1-4.5,0.2c0,0,0,0.1,0,0.1c0.2,0.1,0.4,0.2,0.5,0.3c-0.1,1.7-1.3,1.7-2.8,1.6
			c0.3,0.5,0.5,0.9,0.8,1.1c0.4,0.3,0.9,0.4,1.4,0.5c-0.2,0.4-0.4,0.6-0.6,1c0.7,0,1.2,0.1,1.7,0.1c2.9,0,5.8,0,8.8,0
			c8.2,0,16.4-0.1,24.6-0.1c0.6,0,1.3-0.2,1.9-0.2c1.1,0,2.2-0.1,3.3,0c0.8,0,1.6,0.1,2.4,0.2c0-0.1,0-0.2,0-0.2
			c-1.1-0.2-2.2-0.3-3.3-0.4c0-0.1,0-0.1,0-0.2c0.4,0,0.8,0,1.2,0c0,0,0,0,0-0.1c-0.6-0.1-1.2-0.2-1.8-0.2c0,0,0-0.1,0-0.1
			c1.1,0,2.1,0,3.2,0c0-0.1,0-0.1,0-0.2c0.3-0.1,0.6-0.1,1-0.2c-2.9-1.4-6-0.9-8.9-1.6C-273.6,52.1-272.8,52.1-272,52.1z
			 M-278.5,14.7c-0.4-0.1-0.7-0.3-1.1-0.2c-2.5,0.2-4.9,0.4-7.4,0.5c-3.2,0.2-6.4,0.3-9.6,0.4c-3.3,0.1-6.7,0.1-10,0.2
			c-0.2,0-0.4,0-0.6,0c0,0,0-0.1,0-0.1c0.3-0.1,0.5-0.2,0.9-0.3c-0.2,0-0.3-0.1-0.4-0.1c-1-0.2-2.9,0.4-2.7,0.9c0.2,0,0.3,0,0.5,0
			c0,0.1,0.1,0.1,0.1,0.2c-0.3,0.2-0.6,0.3-0.9,0.5c-0.2,0.2-0.3,0.4-0.5,0.6c-0.5,0.4-1,0.7-1.5,1.1c0,0,0.1,0.1,0.1,0.1
			c0.5-0.2,0.9-0.5,1.4-0.7c0,0.1,0.1,0.1,0.1,0.2c-0.3,0.2-0.6,0.4-0.9,0.5c0,0.1,0,0.1,0.1,0.2c0.2,0,0.5-0.1,0.7-0.1
			c0,0.1,0.1,0.1,0.1,0.2c-0.3,0.1-0.5,0.2-0.8,0.2c-0.4,0.1-0.8,0.2-1.2,0.2c0,0,0,0.1,0.1,0.1c0.5,0.1,1.1,0.3,1.6,0.4
			c-0.3,0.2-0.5,0.4-0.7,0.5c0.4,0.2,0.7,0.3,1,0.4c0,0.1,0,0.2,0,0.3c-0.8-0.4-1.1,0.2-1.4,0.6c0.4,0,0.7-0.1,1.3-0.1
			c-0.4,0.6-0.7,1-1.1,1.4c0.8,0,1.4-0.1,2.1-0.1c0,0,0,0.1,0,0.1c-0.8,0.1-1.6,0.3-2.5,0.4c0.3,0.1,0.6,0.2,1,0.2
			c-0.6,0.4-0.4,0.7,0.1,0.9c-0.3,0.2-0.5,0.3-0.8,0.5c0.1,0.1,0.2,0.2,0.3,0.3c-0.1,0.1-0.3,0.1-0.4,0.2c0.1,0.2,0.3,0.3,0.4,0.5
			c-0.3,0-0.6,0.1-0.7,0.1c0.2,0.1,0.6,0.3,0.8,0.5c0.2,0.2,0.2,0.6,0.4,0.9c0,0-0.2,0-0.3,0.1c0.4,0.1,0.7,0.2,1.1,0.3
			c-0.3,0.1-0.6,0.2-0.9,0.1c-0.3,0-0.8-0.4-0.9,0.2c-0.1,0.6-0.6,1.3,0.3,1.8c0,0,0.1,0.1,0.1,0.2c-0.3-0.1-0.5-0.1-0.6-0.2
			c-0.1,0.7,1,1.1,0.2,1.8c0.3,0.1,0.6,0.1,0.9,0.2c-0.1,0.2-0.1,0.3-0.2,0.4c0.4,0.1,0.8,0.2,1.2,0.2c-0.1,0.1-0.2,0.2-0.3,0.2
			c0.1,0.1,0.2,0.2,0.3,0.2c0.9,0.2,1.8,0.3,2.7,0.5c0,0.1,0,0.2,0,0.2c-1.2-0.1-2.5-0.2-3.7-0.3c0,0.1,0,0.2,0,0.3
			c0.8,0.1,1.7,0.2,2.5,0.3c2.8,0.1,5.6,0.1,8.4,0.2c0.9,0,1.8-0.1,2.7-0.1c0.7,0,1.4,0.1,2.1,0.1c1.9,0,3.9-0.1,5.8-0.2
			c5.8-0.3,11.6-0.1,17.5,0.3c0.9,0.1,1.9,0,2.8,0c0,0,0-0.1,0-0.1c-4.5-0.2-9-0.4-13.5-0.6c1.1-0.2,2.2-0.3,3.4-0.4
			c1.5,0,3,0,4.4,0c0.1,0,0.3,0,0.4,0c0.4-0.1,0.9-0.2,1.3-0.2c1.9,0.1,3.8,0.2,5.7,0.3c0.2,0,0.4-0.1,0.6-0.1c0-0.1,0-0.2,0-0.3
			c-7.6-0.2-15.1-0.4-22.7-0.6c5.8-0.5,11.6-0.3,17.4-0.2c-0.2,0-0.5-0.1-0.7-0.1c0.3,0,0.6-0.1,0.9-0.1c0-0.1,0-0.2,0-0.3
			c-1.3,0-2.7,0-4,0c0-0.1,0-0.2,0-0.3c2.3,0,4.6,0,6.8,0c0,0,0-0.1,0-0.1c-0.3-0.1-0.5-0.2-0.8-0.3c0,0,0-0.1,0-0.1
			c0.7,0,1.4,0,2.2,0c0,0,0,0,0-0.1c-1.2-0.1-2.3-0.2-3.5-0.2c0-0.1,0-0.2,0-0.3c1.7,0,3.4,0,5.1,0c0-0.1,0-0.2,0-0.3
			c-2.3-0.1-4.6-0.2-7-0.4c0,0,0-0.1,0-0.1c2.6,0,5.1,0,7.7,0c0-0.1,0-0.1,0-0.2c-1.1,0-2.2,0-3.3,0c0,0,0-0.1,0-0.1
			c2.6-0.1,5.1-0.2,7.7-0.2c0,0,0-0.1,0-0.1c-2.3-0.1-4.5-0.3-6.8-0.4c0-0.1,0-0.2,0-0.3c1.3,0,2.5,0,3.8,0c0,0,0-0.1,0-0.1
			c-1.9-0.1-3.7-0.3-5.6-0.4c0-0.1,0-0.1,0-0.2c1.6,0,3.2,0,4.7,0c0,0,0-0.1,0-0.1c-1.5-0.1-2.9-0.3-4.4-0.4c0,0,0-0.1,0-0.1
			c1.3,0,2.7,0,4,0c0,0,0-0.1,0-0.1c-1.1-0.2-2.2-0.4-3.3-0.6c0-0.1,0-0.1,0-0.2c1.4,0.1,2.8,0.1,4.1,0.2c0,0,0-0.1,0-0.1
			c-0.2,0-0.4-0.1-0.6-0.1c0,0,0-0.1,0-0.1c0.7,0,1.4,0,2.1,0c0,0,0,0,0,0c-2.1-0.2-4.2-0.3-6.3-0.5c0-0.1,0-0.1,0-0.2
			c2.4,0,4.7,0,7.1,0c0,0,0-0.1,0-0.1c-0.8,0-1.5-0.1-2.4-0.1c1.6-0.3,2.9-0.5,4.4-0.8c-6.5-1.1-13-1.2-19.4-1.7
			c0.6-0.1,1.1-0.1,1.7-0.1c1.1,0,2.2-0.1,3.4-0.2c0.7,0,1.5,0.1,2.1-0.1c0.7-0.3,1.4-0.4,2.1-0.3c0.9,0,1.7,0,2.6,0
			c0-0.1,0-0.1,0-0.2c-1.2-0.1-2.3-0.2-3.5-0.3c0-0.1,0-0.1,0-0.2c2,0,4.1,0,6.1,0c0-0.1,0-0.1,0-0.2c-0.4-0.1-0.7-0.2-1.1-0.3
			c0,0,0-0.1,0-0.1c0.8,0,1.6,0,2.4,0c0,0,0-0.1,0-0.1c-1.7-0.3-3.4-0.5-5-0.8c0.5-0.2,1-0.2,1.4-0.2c0.8,0.1,1.7,0.2,2.5,0.3
			c0.7,0.1,1.4,0.3,2.1-0.2c-6.3-1.2-12.8-0.5-19.1-1.1c3.3-0.1,6.6-0.3,9.9-0.4c0-0.1,0-0.1,0-0.2c-2.2,0-4.3,0-6.5,0
			c0-0.2,0.1-0.4,0.1-0.6c1.3,0,2.6,0,4,0c0.8,0,1.5-0.2,2.3-0.2c0.6,0,1.2,0.1,1.9,0.1c0.6,0,1.3,0.1,1.9,0.1
			c0.6,0,1.2-0.1,1.9-0.2c-0.6-0.1-1.2-0.2-1.7-0.3c-2.5-0.1-5-0.2-7.5-0.2c-1,0-2,0-3,0c-0.7,0-1.5,0.2-2.2,0.2
			c-1.2,0.1-2.3,0.1-3.5,0.2c-1.2,0-2.5,0-3.7,0c0-0.1,0-0.2,0-0.4c2.3,0,4.7,0,7,0c0-0.1,0-0.2,0-0.2c-2.5,0-5,0-7.5,0
			c-2.5,0-5,0.6-7.4,0.1c1.6-0.1,3.2-0.1,4.8-0.2c3.2-0.2,6.4-0.4,9.5-0.7c0.9-0.1,1.7-0.2,2.6-0.3c0.1,0,0.1,0.1,0.2,0.1
			c1.6-0.1,3.3-0.2,4.9-0.3c0.6,0,1.3,0,1.9,0c-0.5-0.2-1-0.3-1.5-0.3c-1.1,0-2.3,0.1-3.4,0.1C-277.3,14.6-277.9,14.6-278.5,14.7z
			 M-265.8-0.8c0-0.1,0-0.2,0-0.3c-2.6,0-5.1,0.1-7.7,0c-1.7,0-3.3-0.4-5-0.4c-2.3-0.1-4.5,0.1-6.8,0.1c-4.4,0-8.8-0.1-13.3-0.1
			c-3.3,0-6.6,0.2-9.9,0.3c-0.8,0-1.6,0.3-2.5,0.5c0.5,1.1-0.3,2.2,0.5,3.1c-0.3,0.2-0.5,0.4-0.8,0.7c0.4,0.1,0.7,0.1,0.9,0.1
			c-0.2,0.6-0.4,1.2-0.4,1.7c-0.1,1.1,0,2.1,0,3.2c0,1.1,0.6,1.7,1.7,1.9c0.1,0,0.3,0,0.4,0c4.9,0.3,9.9,0.5,14.8,0.7
			c0.6,0,1.2-0.2,1.9-0.2c2.5,0,4.9,0,7.4,0c0.9,0,1.9,0.1,2.8,0c1.1-0.1,2.1-0.5,3.2-0.7c0,0,0,0.1,0,0.1c-0.2,0-0.5-0.1-0.7-0.1
			c0,0,0-0.1,0-0.1c3.8-0.4,7.6-0.9,11.6-1.4c-0.5-0.1-0.8-0.1-1-0.1c1-0.2,2.1-0.4,3.1-0.6c-0.2-0.1-0.4-0.1-0.7-0.1
			c-2,0.2-4.1,0.3-6.1,0.5c-0.2,0-0.5-0.1-0.7-0.2c0,0,0-0.1,0-0.1c1.6-0.1,3.3-0.2,4.8-0.3c-0.5-0.1-1.2-0.3-1.8-0.4
			c0,0,0-0.1,0-0.1c1.6-0.1,3.2-0.3,4.8-0.4c0,0,0-0.1,0-0.1c-2.2,0.1-4.3,0.2-6.5,0.2c0-0.1,0-0.1,0-0.2c1-0.1,2-0.3,3-0.4
			c0,0,0-0.1,0-0.1c-0.3,0-0.5-0.1-0.9-0.1c0.4-0.1,0.7-0.1,0.9-0.1c0,0,0-0.1,0-0.1c-0.5,0-1,0-1.7,0c1-0.2,1.8-0.3,2.6-0.4
			c1.2-0.1,2.4-0.2,3.5-0.4c0.2,0,0.3-0.1,0.5-0.2c-3,0.2-6,0.4-8.9,0.6c0,0,0-0.1,0-0.1c1.7-0.1,3.4-0.2,5.1-0.4
			c-0.1-0.4-0.2-0.6-0.3-0.8c1.1,0,2.1,0,3.1,0c0,0,0-0.1,0-0.1c-1.8-0.1-3.7-0.2-5.5-0.3c0,0,0,0,0-0.1c0.6,0,1.2,0,1.8,0
			c0-0.1,0-0.1,0-0.2c-0.7,0-1.3,0-2,0c0,0,0-0.1,0-0.1c2.2-0.2,4.4-0.5,6.6-0.7c0-0.1,0-0.2,0-0.2c-2.8,0.1-5.6,0.2-8.4,0.2
			c0-0.1,0-0.1,0-0.2c1.4-0.1,2.9-0.2,4.3-0.3c0,0,0-0.1,0-0.1c-0.6-0.1-1.2-0.1-2.1-0.2c0.7-0.1,1.2-0.2,1.7-0.3c0-0.1,0-0.1,0-0.2
			c-1.2,0.1-2.4,0.1-3.6,0.2c0-0.1,0-0.1,0-0.2c2.3-0.1,4.5-0.2,6.8-0.3c0-0.1,0-0.2,0-0.3c-1.7,0-3.4,0-5.2,0c0-0.1,0-0.2,0-0.2
			c2.2-0.2,4.5,0,6.6-0.7c-4.5,0-9,0-13.5,0c0,0,0-0.1,0-0.1c2.2,0,4.5,0,6.7,0c0,0,0-0.1,0-0.1c-1.1,0-2.1,0-3.2,0
			c0-0.1,0-0.2,0-0.2C-271.1-0.8-268.5-0.8-265.8-0.8z M-278.6-10.5c-1.3,0-2.4,0-3.5,0c-1.3,0-2.7,0.2-3.9,0c-1.2-0.3-2.3,0-3.5,0
			c-1.2,0.1-2.4,0.2-3.7,0.3c0-0.1,0-0.1,0-0.2c0.4,0,1,0.1,1.3-0.2c0.6-0.5,1.2-0.5,1.9-0.5c2.2-0.1,4.4-0.1,6.9-0.2
			c-0.5-0.2-0.7-0.4-1-0.4c-1.1,0-2.2,0-3.3,0c-0.2,0-0.4,0-0.6-0.1c0-0.1,0.1-0.2,0.1-0.4c-0.6,0-1.1-0.1-1.7-0.1
			c0-0.1,0-0.2,0-0.3c2.6,0,5.2,0,7.8,0c0,0.1,0,0.2,0,0.5c0.7-0.2,1.3-0.4,1.9-0.6c0,0,0-0.1,0-0.1c-0.5-0.1-1-0.2-1.7-0.3
			c3.1-0.2,6.1-0.3,9.1-0.4c0-0.1,0-0.2,0-0.2c-0.4-0.1-0.8-0.3-1.2-0.2c-1.6,0.3-3.2-0.2-4.8,0.3c-1.2,0.3-2.6,0.1-3.9,0.1
			c1.6-0.4,3.2-0.1,4.7-0.8c0.7-0.3,1.5-0.3,2.3-0.4c-0.2-0.1-0.3-0.1-0.5-0.1c-1,0-2,0.1-3,0.1c-1.2,0-2.5,0-3.8,0
			c-1.3,0-2.7,0.1-4,0.1c-0.4,0-0.8,0.2-1.2,0.2c-0.3,0-0.7,0-1,0c0-0.1,0-0.1,0-0.2c0.2-0.1,0.3-0.2,0.5-0.3
			c-0.1,0-0.2-0.1-0.4-0.1c1.9-0.2,3.8-0.5,5.6-0.7c-0.1,0.2-0.2,0.4-0.3,0.6c0.9,0,1.8,0,2.6,0c0.8,0,1.7,0,2.5,0
			c0.8,0,1.6,0,2.4-0.1c0-0.1,0-0.1,0-0.2c-2.3,0-4.5,0-6.8,0c0-0.1-0.1-0.1-0.1-0.2c0.2-0.2,0.5-0.6,0.6-0.5c0.7,0.4,1.4,0.2,2-0.2
			c0,0,0.1,0,0.1,0c0.6-0.1,1.3-0.2,1.9-0.2c0,0,0-0.1,0-0.1c-0.5-0.1-1.1-0.1-1.4-0.1c0.3-0.3,0.7-0.6,1.2-0.8
			c0.3-0.2,0.6-0.3,1-0.3c0.3,0,0.7,0.1,1,0.1c0,0,0-0.1,0-0.1c-0.2-0.1-0.3-0.1-0.5-0.2c0,0,0-0.1,0-0.1c0.3,0,0.6-0.1,1-0.1
			c0,0,0-0.1,0-0.1c-0.3,0-0.5,0-0.8-0.1c0,0,0-0.1,0-0.1c2.3,0.1,4.6,0.2,6.9,0.2c0-0.1,0-0.2,0-0.3c-1.5,0-2.9,0-4.4,0
			c0-0.1,0-0.2,0-0.3c1.7,0,3.5,0,5.2,0c0-0.1,0-0.2,0-0.2c-1.8-0.3-3.6-0.6-5.4-1c0.3-0.1,0.6-0.2,1-0.4c-1.1,0.1-2.1,0-3.2,0
			c-0.6,0-1.3,0-1.9,0c-3.1,0.1-6.1,0.1-9.2,0.2c-1.9,0-3.8,0.1-5.7,0.1c-2.3,0-4.5-0.2-6.8-0.2c-2.1,0-4.2,0.1-6.3,0.1
			c-1.2,0-2.3,0-3.5,0c0,0,0,0.1,0,0.1c0.1,0.1,0.3,0.1,0.6,0.3c-0.4,0-0.6,0.1-0.9,0.1c0.3,0.2,0.5,0.3,0.9,0.4
			c-0.6,0.2-1,0.3-1.2,0.3c0.3,0.3,0.8,0.6,1.2,1c-0.3,0.1-0.6,0.3-1,0.4c0.3,0.1,0.6,0.2,0.8,0.3c-0.2,0.2-0.4,0.3-0.5,0.5
			c0.1,0,0.2,0.1,0.3,0.1c-0.2,0.5-0.4,1-0.5,1.5c-0.2,0.5-0.3,1-0.5,1.6c-0.1,0.2-0.1,0.5-0.1,0.7c0.7,0.1,0.7,0.2,0.1,1.1
			c0.2,0.1,0.3,0.1,0.4,0.1c-0.1,0.3-0.3,0.6-0.4,0.9c0.2,0.1,0.3,0.1,0.3,0.1c0.1,0.4,0.1,0.7,0.2,1c-0.2,0-0.4-0.1-0.6-0.1
			c0,0,0,0.1,0,0.1c0.3,0.1,0.6,0.2,0.7,0.2c0,0.4-0.2,0.7-0.1,0.9c0.2,0.3,0.5,0.5,0.8,0.8c-0.1,0.2-0.2,0.5-0.4,0.9
			c0,0,0.1,0.1,0.3,0.2c-0.3,0-0.5,0.1-0.7,0.1c0,0.1,0,0.1,0,0.2c0.9,0,1.7,0.1,2.6,0.1c-0.1,0.3-0.1,0.6-0.2,0.9
			c1.3,0.1,2.5,0.2,3.7,0.3c1.2,0.1,2.4,0.2,3.6,0.2c1.2,0,2.4,0,3.5,0c0,0,0-0.1,0-0.1c-3.3-0.2-6.6-0.5-9.8-0.7c0-0.1,0-0.2,0-0.3
			c2.6,0,5.2,0,7.8,0.1c2.7,0.1,5.3,0.4,8,0.6c0-0.1,0-0.2,0-0.3c-1.2-0.1-2.4-0.2-3.6-0.2c0-0.1,0-0.2,0-0.3c3,0,6.1,0,9.1,0
			c0-0.1,0-0.2,0-0.3c-0.9,0-1.7,0-2.6,0c0-0.1,0-0.1,0-0.2c1.7-0.4,3.4-0.7,5.1-1.1c0,0.1,0,0.1,0.1,0.2c-0.2,0-0.4-0.1-0.8-0.1
			c1-0.1,1.8-0.1,2.7-0.3c1.9-0.3,3.7-0.6,5.6-0.3c0.4,0.1,0.9-0.1,1.3-0.3c0.3-0.1,0.5-0.3,0.8-0.4C-272.9-9-272.5-9-272-9
			c0-0.1,0-0.2,0-0.2c-3,0-5.9,0-8.7,0c0,0,0.3,0,0.5-0.1c0,0,0,0,0-0.1c-0.6,0-1.1-0.1-1.7-0.1c0-0.1,0-0.1,0-0.2c3,0,6,0,9.1,0
			c0-0.1,0-0.2,0-0.3c-2.2,0-4.5,0-6.7,0c0,0,0-0.1,0-0.1C-279.3-10.3-279-10.4-278.6-10.5z M-271-12.1c0-0.1,0-0.1,0-0.2
			c-2-0.2-4-0.4-6-0.5c0,0.1,0,0.2,0,0.2c0.2,0.1,0.3,0.2,0.6,0.3c-0.6,0-1.1,0-1.6,0c-0.5,0-0.9,0-1.4,0c0,0.1,0,0.2,0,0.2
			C-276.7-12.1-273.9-12.1-271-12.1z M-309.4,38.3c3.6,0,7.2,0,10.8,0c0-0.1,0-0.2,0-0.2C-302.2,38.4-305.8,37.5-309.4,38.3z
			 M-303.8,55.7c0,0.1,0,0.1,0,0.2c3,0,5.9,0,8.9,0c0-0.1,0-0.1,0-0.2C-297.9,55.7-300.8,55.7-303.8,55.7z M-280.7-6.2
			c0.2,0.1,0.3,0.1,0.6,0.2c-0.4,0.1-0.6,0.1-0.9,0.1c0,0,0,0.1,0,0.1c1.4-0.1,2.7-0.1,4.1-0.2c0-0.1,0-0.2,0-0.2
			C-278.1-6.2-279.4-6.2-280.7-6.2z M-294.3,14.7c0,0.1,0,0.2,0,0.3c1.5-0.1,2.9-0.2,4.4-0.3c0-0.1,0-0.2,0-0.3
			C-291.4,14.6-292.8,14.7-294.3,14.7z M-299.2,14.9c0,0,0-0.1,0-0.1c-1.3-0.1-2.6-0.1-3.9-0.2c0,0.1,0,0.2,0,0.3
			C-301.7,14.9-300.5,14.9-299.2,14.9z M-289.5,55.8C-289.5,55.7-289.5,55.7-289.5,55.8c-1.6-0.1-3.1-0.1-4.7-0.1c0,0,0,0.1,0,0.1
			C-292.7,55.8-291.1,55.8-289.5,55.8z M-285.5,14.4c0-0.1,0-0.1,0-0.2c-1.1,0.1-2.1,0.2-3.2,0.3c0,0.1,0,0.1,0,0.2
			C-287.6,14.6-286.5,14.5-285.5,14.4z M-295.3,15.1c0-0.1,0-0.1,0-0.2c-1,0-2,0-3,0c0,0.1,0,0.1,0,0.2
			C-297.3,15.1-296.3,15.1-295.3,15.1z M-285.1,14.1c0,0.1,0,0.2,0,0.2c0.9-0.1,1.8-0.1,2.7-0.2c0-0.1,0-0.1,0-0.2
			C-283.3,14-284.2,14.1-285.1,14.1z M-289.5,56.5C-289.5,56.5-289.5,56.5-289.5,56.5c-1.2-0.1-2.4-0.1-3.6-0.1c0,0,0,0,0,0.1
			C-292,56.5-290.7,56.5-289.5,56.5z M-269.5,31.6C-269.5,31.7-269.5,31.7-269.5,31.6c1.1,0.1,2.3,0.1,3.5,0.1c0,0,0,0,0-0.1
			C-267.2,31.6-268.3,31.6-269.5,31.6z"/>
		<path class="st1" d="M-278.7,14.9c-0.9,0.1-1.7,0.2-2.6,0.3c-3.2,0.2-6.4,0.5-9.5,0.7c-1.6,0.1-3.2,0-4.8,0.2
			c2.5,0.5,5-0.1,7.4-0.1c2.5,0,5,0,7.5,0c0,0.1,0,0.2,0,0.2c-2.3,0-4.7,0-7,0c0,0.1,0,0.2,0,0.4c1.2,0,2.5,0,3.7,0
			c1.2,0,2.3-0.1,3.5-0.2c0.7,0,1.5-0.2,2.2-0.2c1,0,2-0.1,3,0c2.5,0.1,5,0.1,7.5,0.2c0.5,0,1,0.2,1.7,0.3c-0.7,0.1-1.3,0.2-1.9,0.2
			c-0.6,0-1.3,0-1.9-0.1c-0.6,0-1.2-0.2-1.9-0.1c-0.8,0-1.5,0.2-2.3,0.2c-1.3,0-2.6,0-4,0c0,0.2-0.1,0.4-0.1,0.6c2.2,0,4.3,0,6.5,0
			c0,0.1,0,0.1,0,0.2c-3.3,0.1-6.6,0.3-9.9,0.4c6.4,0.6,12.8-0.1,19.1,1.1c-0.7,0.5-1.4,0.2-2.1,0.2c-0.8-0.1-1.7-0.2-2.5-0.3
			c-0.5,0-0.9,0-1.4,0.2c1.7,0.3,3.4,0.5,5,0.8c0,0,0,0.1,0,0.1c-0.8,0-1.6,0-2.4,0c0,0,0,0.1,0,0.1c0.4,0.1,0.7,0.2,1.1,0.3
			c0,0.1,0,0.1,0,0.2c-2,0-4.1,0-6.1,0c0,0.1,0,0.1,0,0.2c1.2,0.1,2.3,0.2,3.5,0.3c0,0.1,0,0.1,0,0.2c-0.9,0-1.7,0-2.6,0
			c-0.7,0-1.4,0-2.1,0.3c-0.6,0.3-1.4,0.1-2.1,0.1c-1.1,0-2.2,0.1-3.4,0.2c-0.6,0-1.1,0-1.7,0.1c6.4,0.4,12.9,0.6,19.4,1.7
			c-1.5,0.3-2.9,0.5-4.4,0.8c0.9,0,1.6,0.1,2.4,0.1c0,0,0,0.1,0,0.1c-2.4,0-4.7,0-7.1,0c0,0.1,0,0.1,0,0.2c2.1,0.2,4.2,0.3,6.3,0.5
			c0,0,0,0,0,0c-0.7,0-1.4,0-2.1,0c0,0,0,0.1,0,0.1c0.2,0,0.4,0.1,0.6,0.1c0,0,0,0.1,0,0.1c-1.4-0.1-2.8-0.1-4.1-0.2
			c0,0.1,0,0.1,0,0.2c1.1,0.2,2.2,0.4,3.3,0.6c0,0,0,0.1,0,0.1c-1.3,0-2.7,0-4,0c0,0,0,0.1,0,0.1c1.5,0.1,2.9,0.3,4.4,0.4
			c0,0,0,0.1,0,0.1c-1.6,0-3.2,0-4.7,0c0,0.1,0,0.1,0,0.2c1.8,0.1,3.7,0.3,5.6,0.4c0,0,0,0.1,0,0.1c-1.3,0-2.5,0-3.8,0
			c0,0.1,0,0.2,0,0.3c2.3,0.1,4.5,0.3,6.8,0.4c0,0,0,0.1,0,0.1c-2.6,0.1-5.1,0.2-7.7,0.2c0,0,0,0.1,0,0.1c1.1,0,2.2,0,3.3,0
			c0,0.1,0,0.1,0,0.2c-2.6,0-5.1,0-7.7,0c0,0,0,0.1,0,0.1c2.3,0.1,4.6,0.2,7,0.4c0,0.1,0,0.2,0,0.3c-1.7,0-3.4,0-5.1,0
			c0,0.1,0,0.2,0,0.3c1.2,0.1,2.3,0.2,3.5,0.2c0,0,0,0,0,0.1c-0.7,0-1.4,0-2.2,0c0,0,0,0.1,0,0.1c0.3,0.1,0.5,0.2,0.8,0.3
			c0,0,0,0.1,0,0.1c-2.3,0-4.6,0-6.8,0c0,0.1,0,0.2,0,0.3c1.3,0,2.7,0,4,0c0,0.1,0,0.2,0,0.3c-0.3,0-0.6,0.1-0.9,0.1
			c0.3,0,0.5,0.1,0.7,0.1c-5.8,0-11.6-0.2-17.4,0.2c7.6,0.2,15.1,0.4,22.7,0.6c0,0.1,0,0.2,0,0.3c-0.2,0-0.4,0.1-0.6,0.1
			c-1.9-0.1-3.8-0.2-5.7-0.3c-0.4,0-0.9,0.1-1.3,0.2c-0.1,0-0.3,0-0.4,0c-1.5,0-3,0-4.4,0c-1.1,0-2.2,0.2-3.4,0.4
			c4.5,0.2,9,0.4,13.5,0.6c0,0,0,0.1,0,0.1c-0.9,0-1.9,0.1-2.8,0c-5.8-0.4-11.6-0.6-17.5-0.3c-1.9,0.1-3.9,0.1-5.8,0.2
			c-0.7,0-1.4-0.1-2.1-0.1c-0.9,0-1.8,0.1-2.7,0.1c-2.8,0-5.6-0.1-8.4-0.2c-0.8,0-1.7-0.2-2.5-0.3c0-0.1,0-0.2,0-0.3
			c1.2,0.1,2.4,0.2,3.7,0.3c0-0.1,0-0.2,0-0.2c-0.9-0.2-1.8-0.3-2.7-0.5c-0.1,0-0.2-0.1-0.3-0.2c0.1-0.1,0.2-0.1,0.3-0.2
			c-0.4-0.1-0.8-0.2-1.2-0.2c0.1-0.1,0.1-0.2,0.2-0.4c-0.3-0.1-0.6-0.1-0.9-0.2c0.9-0.7-0.3-1.1-0.2-1.8c0.2,0,0.4,0.1,0.6,0.2
			c-0.1-0.1-0.1-0.2-0.1-0.2c-0.9-0.5-0.4-1.2-0.3-1.8c0.1-0.6,0.6-0.2,0.9-0.2c0.3,0,0.6,0,0.9-0.1c-0.4-0.1-0.7-0.2-1.1-0.3
			c0.1,0,0.3-0.1,0.3-0.1c-0.1-0.3-0.2-0.7-0.4-0.9c-0.2-0.3-0.6-0.4-0.8-0.5c0.1,0,0.4,0,0.7-0.1c-0.1-0.2-0.3-0.4-0.4-0.5
			c0.1-0.1,0.3-0.1,0.4-0.2c-0.1-0.1-0.2-0.2-0.3-0.3c0.3-0.2,0.5-0.3,0.8-0.5c-0.5-0.2-0.7-0.5-0.1-0.9c-0.3-0.1-0.6-0.1-1-0.2
			c0.9-0.1,1.7-0.3,2.5-0.4c0,0,0-0.1,0-0.1c-0.7,0-1.3,0.1-2.1,0.1c0.4-0.5,0.7-0.9,1.1-1.4c-0.6,0-0.9,0.1-1.3,0.1
			c0.3-0.5,0.6-1.1,1.4-0.6c0-0.1,0-0.2,0-0.3c-0.3-0.1-0.6-0.3-1-0.4c0.1-0.1,0.4-0.3,0.7-0.5c-0.5-0.1-1.1-0.3-1.6-0.4
			c0,0,0-0.1-0.1-0.1c0.4-0.1,0.8-0.1,1.2-0.2c0.3-0.1,0.5-0.2,0.8-0.2c0-0.1-0.1-0.1-0.1-0.2c-0.2,0-0.5,0.1-0.7,0.1
			c0-0.1,0-0.1-0.1-0.2c0.3-0.2,0.6-0.4,0.9-0.5c0-0.1-0.1-0.1-0.1-0.2c-0.5,0.2-0.9,0.5-1.4,0.7c0,0-0.1-0.1-0.1-0.1
			c0.5-0.4,1-0.7,1.5-1.1c0.1-0.2,0.3-0.4,0.5-0.6c0.3-0.2,0.6-0.4,0.9-0.5c0-0.1-0.1-0.1-0.1-0.2c-0.2,0-0.3,0-0.5,0
			c-0.2-0.5,1.7-1.2,2.7-0.9c0.1,0,0.2,0,0.4,0.1c-0.4,0.1-0.6,0.2-0.9,0.3c0,0,0,0.1,0,0.1c0.2,0,0.4,0,0.6,0
			c3.3-0.1,6.7-0.1,10-0.2c3.2-0.1,6.4-0.2,9.6-0.4c2.5-0.1,4.9-0.4,7.4-0.5c0.4,0,0.7,0.2,1.1,0.2
			C-278.6,14.8-278.7,14.9-278.7,14.9z M-279.5,32.9c0-0.1,0-0.1,0-0.2c-6.1,0-12.2,0-18.3,0c1,0.3,2,0.5,2.9,0.6
			c1.6,0,3.3-0.1,4.9-0.1c1.3-0.1,2.6-0.2,3.9-0.2C-283.8,32.9-281.7,32.9-279.5,32.9z M-304.6,16.2c0,0.1,0,0.3,0,0.4
			c1.9,0.2,3.8-0.3,5.8-0.2c0-0.1,0-0.2,0-0.2C-300.7,16.2-302.7,16.2-304.6,16.2z M-290.2,16.4c0,0,0,0.1,0,0.1c0.6,0,1.3,0,1.9,0
			c0,0,0-0.1,0-0.1C-288.9,16.4-289.6,16.4-290.2,16.4z M-270.3,27.2c0-0.1,0-0.1,0-0.2c-0.8,0-1.6-0.1-2.3-0.1c0,0.1,0,0.1,0,0.2
			C-271.9,27.1-271.1,27.1-270.3,27.2z"/>
		<path class="st1" d="M-272,52.1c-0.8,0-1.6,0-2.4,0c2.9,0.7,6,0.2,8.9,1.6c-0.4,0.1-0.7,0.2-1,0.2c0,0.1,0,0.1,0,0.2
			c-1.1,0-2.1,0-3.2,0c0,0,0,0.1,0,0.1c0.6,0.1,1.2,0.2,1.8,0.2c0,0,0,0,0,0.1c-0.4,0-0.8,0-1.2,0c0,0.1,0,0.1,0,0.2
			c1.1,0.1,2.2,0.3,3.3,0.4c0,0.1,0,0.2,0,0.2c-0.8-0.1-1.6-0.2-2.4-0.2c-1.1,0-2.2,0-3.3,0c-0.6,0-1.3,0.2-1.9,0.2
			c-8.2,0.1-16.4,0.1-24.6,0.1c-2.9,0-5.8,0-8.8,0c-0.5,0-1-0.1-1.7-0.1c0.2-0.4,0.4-0.6,0.6-1c-0.4-0.2-1-0.3-1.4-0.5
			c-0.3-0.2-0.4-0.6-0.8-1.1c1.4,0.1,2.7,0.1,2.8-1.6c-0.1,0-0.3-0.2-0.5-0.3c0,0,0-0.1,0-0.1c1.5-0.1,3-0.1,4.5-0.2
			c0-0.1,0-0.1,0-0.2c-1.6,0-3.2,0-4.7,0c0.1-0.5,0.1-1,0.2-1.4c-1-0.2-2.4,0.2-2.8-1.3c-0.1-0.3-0.9-1.1,0.3-1.5
			c-0.2-0.1-0.4-0.2-0.7-0.3c0.3-0.2,0.5-0.4,0.7-0.6c-0.7-0.2-0.4-0.6-0.4-1.1c0-0.5-0.2-1-0.4-1.4c0.5-0.2,0.8-0.3,1.1-0.5
			c0,0,0-0.1,0-0.1c-0.2,0-0.4-0.1-0.7-0.1c0.4-0.3,0.8-0.6,1.2-0.9c-0.4-0.2-0.6-0.2-0.9-0.3c0,0,0-0.1,0-0.1
			c0.4,0,0.7-0.1,1.1-0.1c0,0,0-0.1,0-0.1c-0.3-0.1-0.6-0.2-0.9-0.3c0.5-0.6,0.9-1.2,1.9-1.2c8.3,0,16.6,0,24.9,0
			c1.6,0,3.1,0.1,4.7,0.3c-0.7,0-1.3,0-2,0c0,0,0,0.1,0,0.1c2.3,0,4.6,0,7.1,0c-0.7,0-1.3,0.1-1.9,0.1c1.7,0.1,3.5,0.2,5.2,0.3
			c0,0.1,0,0.2,0,0.3c-0.5,0-1,0-1.4,0c0,0,0,0.1,0,0.1c2.2,0.2,4.3,0.5,6.5,0.7c0,0,0,0,0,0.1c-6.8-0.2-13.5-0.4-20.3-0.6
			c0,0.1,0,0.1,0,0.2c8.2,0.3,16.4,0.2,24.5,2c-2.8-0.2-5.7-0.3-8.5-0.5c0,0.1,0,0.1,0,0.2c0.2,0.1,0.5,0.1,0.7,0.2
			c1.1,0.1,2.2,0.1,3.2,0.3c0.9,0.1,1.8,0.5,2.7,0.7c1.3,0.3,2.7,0.5,4,0.7c0.9,0.2,1.8,0.1,2.4,0.9c0.2,0.2,0.8,0.2,1.2,0.3
			c0,0.1,0,0.2,0,0.2c-0.3,0-0.5,0-0.8-0.1c-0.9,0-2-0.4-2.8-0.1c-1.5,0.6-2.9-0.1-4.4,0.2c1,0.1,2.1,0.3,3.1,0.4c0,0,0,0.1,0,0.1
			c-0.5,0-1.1,0-1.6,0c0,0,0,0.1,0,0.1c0.4,0.1,0.8,0.1,1.3,0.2c0,0,0,0,0,0c-2.4,0-4.7,0-7.1,0c0,0.1,0,0.2,0,0.3
			c1.7,0.2,3.5,0.5,5.2,0.7c-1.6-0.2-3.1,0.5-4.7,0c-0.1,0-0.3,0-0.4,0c-0.1,0-0.1,0.1-0.2,0.2c0.1,0.1,0.2,0.2,0.4,0.4
			c-0.3,0-0.6,0-1.1,0.1c0.3,0.1,0.4,0.2,0.6,0.2c0,0.1-0.1,0.1-0.1,0.2c-0.7,0-1.3,0-2,0c0,0.1,0,0.1,0,0.2
			c0.7,0.1,1.3,0.3,1.9,0.4c-12.3-0.8-24.6-0.8-36.9,0c1.3,0,2.7,0,4,0c3.8,0,7.7,0,11.5,0c3.1,0,6.3,0,9.4,0c0.6,0,1.2,0.2,1.8,0.3
			c0.5,0.1,1.1,0,1.7,0c0.6,1,1.8,0.3,2.7,0.6c0,0.1,0,0.1,0,0.2c-6.1,0.1-12.2,0.2-18.3,0.3c6.4,0.4,12.7-0.1,19.1,0.5
			c0,0.1,0,0.2,0,0.3c-3.3,0-6.5,0-9.8,0c0,0.1,0,0.1,0,0.2c1.4,0.1,2.8,0.1,4.3,0.2c2,0.1,4,0.1,6,0.2
			C-272.4,51.9-272.2,52-272,52.1L-272,52.1z M-295.7,50.7c0,0,0-0.1,0-0.1c-1.1,0-2.2,0-3.2,0c0,0,0,0.1,0,0.1
			C-297.9,50.7-296.8,50.7-295.7,50.7z"/>
		<path class="st1" d="M-265.8-0.8c-2.6,0-5.2,0-7.9,0c0,0.1,0,0.2,0,0.2c1.1,0,2.1,0,3.2,0c0,0,0,0.1,0,0.1c-2.2,0-4.5,0-6.7,0
			c0,0,0,0.1,0,0.1c4.5,0,9,0,13.5,0c-2.2,0.7-4.4,0.5-6.6,0.7c0,0.1,0,0.2,0,0.2c1.7,0,3.4,0,5.2,0c0,0.1,0,0.2,0,0.3
			c-2.3,0.1-4.5,0.2-6.8,0.3c0,0.1,0,0.1,0,0.2c1.2-0.1,2.4-0.1,3.6-0.2c0,0.1,0,0.1,0,0.2c-0.5,0.1-1,0.2-1.7,0.3
			c0.8,0.1,1.4,0.1,2.1,0.2c0,0,0,0.1,0,0.1c-1.4,0.1-2.9,0.2-4.3,0.3c0,0.1,0,0.1,0,0.2c2.8-0.1,5.6-0.2,8.4-0.2c0,0.1,0,0.2,0,0.2
			c-2.2,0.2-4.4,0.5-6.6,0.7c0,0,0,0.1,0,0.1c0.7,0,1.3,0,2,0c0,0.1,0,0.1,0,0.2c-0.6,0-1.2,0-1.8,0c0,0,0,0,0,0.1
			c1.8,0.1,3.7,0.2,5.5,0.3c0,0,0,0.1,0,0.1c-1,0-2.1,0-3.1,0c0.1,0.3,0.2,0.5,0.3,0.8c-1.7,0.1-3.4,0.2-5.1,0.4c0,0,0,0.1,0,0.1
			c2.9-0.2,5.8-0.4,8.9-0.6c-0.2,0.1-0.4,0.2-0.5,0.2c-1.2,0.1-2.4,0.2-3.5,0.4c-0.8,0.1-1.6,0.2-2.6,0.4c0.7,0,1.2,0,1.7,0
			c0,0,0,0.1,0,0.1c-0.3,0-0.5,0.1-0.9,0.1c0.4,0,0.7,0.1,0.9,0.1c0,0,0,0.1,0,0.1c-1,0.1-2,0.3-3,0.4c0,0.1,0,0.1,0,0.2
			c2.2-0.1,4.3-0.2,6.5-0.2c0,0,0,0.1,0,0.1c-1.6,0.1-3.2,0.3-4.8,0.4c0,0,0,0.1,0,0.1c0.6,0.2,1.3,0.3,1.8,0.4
			c-1.5,0.1-3.1,0.2-4.8,0.3c0,0,0,0.1,0,0.1c0.2,0.1,0.5,0.2,0.7,0.2c2-0.1,4.1-0.3,6.1-0.5c0.2,0,0.4,0,0.7,0.1
			c-1,0.2-2.1,0.4-3.1,0.6c0.3,0,0.5,0.1,1,0.1c-4,0.5-7.8,0.9-11.6,1.4c0,0,0,0.1,0,0.1c0.2,0,0.4,0.1,0.7,0.1c0,0,0-0.1,0-0.1
			c-1.1,0.3-2.1,0.6-3.2,0.7c-0.9,0.1-1.9,0-2.8,0c-2.5,0-4.9,0-7.4,0c-0.6,0-1.2,0.3-1.9,0.2c-4.9-0.2-9.9-0.5-14.8-0.7
			c-0.1,0-0.3,0-0.4,0c-1.1-0.1-1.7-0.7-1.7-1.9c0-1.1-0.1-2.1,0-3.2c0-0.6,0.3-1.1,0.4-1.7c-0.2,0-0.5-0.1-0.9-0.1
			c0.3-0.3,0.6-0.5,0.8-0.7c-0.8-0.9,0-2-0.5-3.1c0.9-0.2,1.7-0.5,2.5-0.5c3.3-0.2,6.6-0.3,9.9-0.3c4.4,0,8.8,0.1,13.3,0.1
			c2.3,0,4.5-0.1,6.8-0.1c1.7,0,3.3,0.3,5,0.4c2.6,0.1,5.1,0,7.7,0C-265.8-1-265.8-0.9-265.8-0.8z"/>
		<path class="st1" d="M-278.6-10.5c-0.4,0.1-0.7,0.2-1,0.3c0,0,0,0.1,0,0.1c2.2,0,4.5,0,6.7,0c0,0.1,0,0.2,0,0.3c-3,0-6,0-9.1,0
			c0,0.1,0,0.1,0,0.2c0.6,0,1.1,0.1,1.7,0.1c0,0,0,0,0,0.1c-0.2,0-0.5,0.1-0.5,0.1c2.8,0,5.7,0,8.7,0c0,0.1,0,0.2,0,0.2
			c-0.4,0-0.9,0-1.3,0.1c-0.3,0.1-0.5,0.3-0.8,0.4c-0.4,0.1-0.9,0.3-1.3,0.3c-1.9-0.2-3.7,0-5.6,0.3c-0.8,0.1-1.7,0.2-2.7,0.3
			c0.4,0.1,0.6,0.1,0.8,0.1c0-0.1,0-0.1-0.1-0.2c-1.7,0.4-3.4,0.7-5.1,1.1c0,0.1,0,0.1,0,0.2c0.9,0,1.7,0,2.6,0c0,0.1,0,0.2,0,0.3
			c-3,0-6.1,0-9.1,0c0,0.1,0,0.2,0,0.3c1.2,0.1,2.4,0.2,3.6,0.2c0,0.1,0,0.2,0,0.3c-2.7-0.2-5.3-0.5-8-0.6c-2.6-0.1-5.2-0.1-7.8-0.1
			c0,0.1,0,0.2,0,0.3c3.3,0.2,6.6,0.5,9.8,0.7c0,0,0,0.1,0,0.1c-1.2,0-2.4,0-3.5,0c-1.2,0-2.4-0.1-3.6-0.2c-1.2-0.1-2.4-0.2-3.7-0.3
			c0.1-0.3,0.1-0.6,0.2-0.9c-0.9,0-1.7-0.1-2.6-0.1c0-0.1,0-0.1,0-0.2c0.2,0,0.4-0.1,0.7-0.1c-0.2-0.1-0.3-0.2-0.3-0.2
			c0.2-0.4,0.3-0.7,0.4-0.9c-0.3-0.3-0.7-0.5-0.8-0.8c-0.1-0.2,0-0.5,0.1-0.9c-0.1,0-0.4-0.1-0.7-0.2c0,0,0-0.1,0-0.1
			c0.2,0,0.4,0.1,0.6,0.1c-0.1-0.3-0.1-0.6-0.2-1c0,0-0.1,0-0.3-0.1c0.1-0.3,0.2-0.6,0.4-0.9c-0.1,0-0.2-0.1-0.4-0.1
			c0.7-0.9,0.6-1-0.1-1.1c0-0.2,0-0.5,0.1-0.7c0.1-0.5,0.3-1,0.5-1.6c0.2-0.5,0.3-1,0.5-1.5c-0.1,0-0.2-0.1-0.3-0.1
			c0.2-0.2,0.3-0.3,0.5-0.5c-0.3-0.1-0.5-0.2-0.8-0.3c0.4-0.2,0.7-0.3,1-0.4c-0.4-0.4-0.9-0.7-1.2-1c0.2-0.1,0.6-0.2,1.2-0.3
			c-0.4-0.2-0.6-0.3-0.9-0.4c0.3,0,0.6-0.1,0.9-0.1c-0.3-0.1-0.4-0.2-0.6-0.3c0,0,0-0.1,0-0.1c1.2,0,2.3,0,3.5,0
			c2.1,0,4.2-0.2,6.3-0.1c2.3,0,4.5,0.2,6.8,0.2c1.9,0,3.8-0.1,5.7-0.1c3.1-0.1,6.1-0.1,9.2-0.2c0.6,0,1.3-0.1,1.9,0
			c1.1,0,2.1,0.1,3.2,0c-0.3,0.1-0.6,0.2-1,0.4c1.8,0.3,3.6,0.7,5.4,1c0,0.1,0,0.2,0,0.2c-1.7,0-3.5,0-5.2,0c0,0.1,0,0.2,0,0.3
			c1.5,0,2.9,0,4.4,0c0,0.1,0,0.2,0,0.3c-2.3-0.1-4.6-0.2-6.9-0.2c0,0,0,0.1,0,0.1c0.3,0,0.5,0,0.8,0.1c0,0,0,0.1,0,0.1
			c-0.3,0-0.6,0.1-1,0.1c0,0,0,0.1,0,0.1c0.2,0.1,0.3,0.1,0.5,0.2c0,0,0,0.1,0,0.1c-0.3,0-0.7-0.1-1-0.1c-0.3,0-0.7,0.1-1,0.3
			c-0.4,0.2-0.8,0.6-1.2,0.8c0.4,0,0.9,0.1,1.4,0.1c0,0,0,0.1,0,0.1c-0.6,0.1-1.3,0.2-1.9,0.2c0,0-0.1,0-0.1,0
			c-0.7,0.4-1.3,0.6-2,0.2c-0.1,0-0.4,0.3-0.6,0.5c0,0.1,0.1,0.1,0.1,0.2c2.3,0,4.5,0,6.8,0c0,0.1,0,0.1,0,0.2
			c-0.8,0-1.6,0.1-2.4,0.1c-0.8,0-1.7,0-2.5,0c-0.8,0-1.7,0-2.6,0c0.1-0.2,0.2-0.4,0.3-0.6c-1.9,0.2-3.7,0.4-5.6,0.7
			c0.1,0,0.2,0.1,0.4,0.1c-0.2,0.1-0.4,0.2-0.5,0.3c0,0.1,0,0.1,0,0.2c0.3,0,0.7,0.1,1,0c0.4,0,0.8-0.2,1.2-0.2
			c1.3-0.1,2.7-0.1,4-0.1c1.2,0,2.5,0,3.8,0c1,0,2-0.1,3-0.1c0.2,0,0.3,0,0.5,0.1c-0.8,0.1-1.6,0.1-2.3,0.4
			c-1.5,0.8-3.1,0.4-4.7,0.8c1.4,0,2.7,0.3,3.9-0.1c1.6-0.4,3.2,0.1,4.8-0.3c0.4-0.1,0.8,0.1,1.2,0.2c0,0.1,0,0.2,0,0.2
			c-3,0.1-5.9,0.3-9.1,0.4c0.7,0.1,1.2,0.2,1.7,0.3c0,0,0,0.1,0,0.1c-0.6,0.2-1.2,0.4-1.9,0.6c0-0.2,0-0.4,0-0.5c-2.6,0-5.2,0-7.8,0
			c0,0.1,0,0.2,0,0.3c0.6,0,1.2,0.1,1.7,0.1c0,0.2-0.1,0.3-0.1,0.4c0.2,0,0.4,0.1,0.6,0.1c1.1,0,2.2,0,3.3,0c0.3,0,0.5,0.2,1,0.4
			c-2.4,0.1-4.6,0.2-6.9,0.2c-0.7,0-1.3,0-1.9,0.5c-0.3,0.2-0.9,0.1-1.3,0.2c0,0.1,0,0.1,0,0.2c1.2-0.1,2.4-0.2,3.7-0.3
			c1.2-0.1,2.3-0.3,3.5,0c1.3,0.3,2.6,0,3.9,0C-281-10.5-279.9-10.5-278.6-10.5z"/>
		<path class="st1" d="M-271-12.1c-2.8,0-5.7,0-8.5,0c0-0.1,0-0.2,0-0.2c0.5,0,0.9,0,1.4,0c0.5,0,1,0,1.6,0
			c-0.2-0.1-0.4-0.2-0.6-0.3c0-0.1,0-0.2,0-0.2c2,0.2,4,0.4,6,0.5C-271-12.3-271-12.2-271-12.1z"/>
		<path class="st1" d="M-309.4,38.3c3.6-0.8,7.2,0.1,10.7-0.2c0,0.1,0,0.2,0,0.2C-302.2,38.3-305.8,38.3-309.4,38.3z"/>
		<path class="st1" d="M-278.7,14.9c0.1-0.1,0.1-0.2,0.2-0.2c0.6-0.1,1.2-0.2,1.9-0.2c1.1-0.1,2.3-0.1,3.4-0.1c0.5,0,1,0.1,1.5,0.3
			c-0.6,0-1.3,0-1.9,0c-1.6,0.1-3.3,0.2-4.9,0.3C-278.6,15-278.7,15-278.7,14.9z"/>
		<path class="st1" d="M-303.8,55.7c3,0,5.9,0,8.9,0c0,0.1,0,0.1,0,0.2c-3,0-5.9,0-8.9,0C-303.8,55.8-303.8,55.7-303.8,55.7z"/>
		<path class="st1" d="M-280.7-6.2c1.3,0,2.6,0,3.8,0c0,0.1,0,0.2,0,0.2c-1.4,0.1-2.7,0.1-4.1,0.2c0,0,0-0.1,0-0.1
			c0.2,0,0.5-0.1,0.9-0.1C-280.4-6.1-280.5-6.1-280.7-6.2z"/>
		<path class="st1" d="M-294.3,14.7c1.5-0.1,2.9-0.2,4.4-0.3c0,0.1,0,0.2,0,0.3c-1.5,0.1-2.9,0.2-4.4,0.3
			C-294.3,14.9-294.3,14.8-294.3,14.7z"/>
		<path class="st1" d="M-299.2,14.9c-1.3,0-2.6,0-3.9,0c0-0.1,0-0.2,0-0.3c1.3,0.1,2.6,0.1,3.9,0.2
			C-299.2,14.8-299.2,14.9-299.2,14.9z"/>
		<path class="st1" d="M-272,52.1c1.8,0,3.6,0,5.4,0c0,0,0,0,0,0C-268.4,52.1-270.2,52.1-272,52.1C-272,52.1-272,52.1-272,52.1z"/>
		<path class="st1" d="M-289.5,55.8c-1.6,0-3.1,0-4.7,0c0,0,0-0.1,0-0.1C-292.7,55.7-291.1,55.7-289.5,55.8
			C-289.5,55.7-289.5,55.7-289.5,55.8z"/>
		<path class="st1" d="M-285.5,14.4c-1.1,0.1-2.1,0.1-3.2,0.2c0-0.1,0-0.1,0-0.2c1.1-0.1,2.1-0.2,3.2-0.3
			C-285.5,14.3-285.5,14.3-285.5,14.4z"/>
		<path class="st1" d="M-295.3,15.1c-1,0-2,0-3,0c0-0.1,0-0.1,0-0.2c1,0,2,0,3,0C-295.3,15-295.3,15-295.3,15.1z"/>
		<path class="st1" d="M-285.1,14.1c0.9,0,1.8-0.1,2.7-0.1c0,0.1,0,0.1,0,0.2c-0.9,0.1-1.8,0.1-2.7,0.2
			C-285.1,14.3-285.1,14.2-285.1,14.1z"/>
		<path class="st1" d="M-289.5,56.5c-1.2,0-2.4,0-3.6,0c0,0,0,0,0-0.1C-292,56.5-290.8,56.5-289.5,56.5
			C-289.5,56.5-289.5,56.5-289.5,56.5z"/>
		<path class="st1" d="M-269.5,31.6c1.2,0,2.3,0,3.5,0c0,0,0,0,0,0.1C-267.2,31.7-268.3,31.7-269.5,31.6
			C-269.5,31.7-269.5,31.7-269.5,31.6z"/>
		<path class="st0" d="M-279.5,32.9c-2.2,0-4.3,0-6.5,0c-1.3,0-2.6,0.2-3.9,0.2c-1.6,0.1-3.3,0.2-4.9,0.1c-1,0-2-0.3-2.9-0.6
			c6.1,0,12.2,0,18.3,0C-279.5,32.8-279.5,32.8-279.5,32.9z"/>
		<path class="st0" d="M-304.6,16.2c1.9,0,3.8,0,5.8,0c0,0.1,0,0.2,0,0.2c-1.9-0.1-3.8,0.3-5.8,0.2
			C-304.6,16.5-304.6,16.3-304.6,16.2z"/>
		<path class="st0" d="M-290.2,16.4c0.6,0,1.3,0,1.9,0c0,0,0,0.1,0,0.1c-0.6,0-1.3,0-1.9,0C-290.2,16.5-290.2,16.4-290.2,16.4z"/>
		<path class="st0" d="M-270.3,27.2c-0.8,0-1.5-0.1-2.3-0.1c0-0.1,0-0.1,0-0.2c0.8,0,1.6,0.1,2.3,0.1
			C-270.3,27-270.3,27.1-270.3,27.2z"/>
		<path class="st0" d="M-295.7,50.7c-1.1,0-2.2,0-3.3,0c0,0,0-0.1,0-0.1c1.1,0,2.2,0,3.2,0C-295.7,50.6-295.7,50.6-295.7,50.7z"/>
	</g>
</g>
<g id="Layer_3">
	<g>
		<g>
			<path class="st2" d="M191.5,160.8"/>
		</g>
		<g>
			<path class="st2" d="M208.5,165.8c10,2.5,18.5,9,28,12.5c9.5,4,20.5,5,30.5,9.5c-21,0-43.5-0.5-64-2c11-1,27,1,38,3.5
				c-20,2.5-42.5-0.5-63-1c-15-0.5-30-1-44.5-2c-11-1-20.5,0.5-31.5,0.5c-12,0-24-1.5-35.5,3c3.5-0.5,7.5-1,10-4c-3-1-6-1.5-9-1.5
				c4,1.5,8,3,12,4c-7,0.5-8,0.5-14.5-2.5c16,1,32.5,0.6,48.5,3.1c-8.5,1-17-0.9-26-0.9c4,0,8.5,0,12.5,0c-4.5,0-9.5,0-14,0
				c1.5,0,3.5,0.9,5,1.4c-2,0-4,0.5-6,0.5c1.5,0.5,3,0.5,4.5,1c-2.5,0-5.5-0.5-7.5-1c2-2.5,6-3,9.5-3c-13-3.5-46-7.5-29-28
				c8.5-10.5,15-14.5,0-23.5c11.5,1.5,41.5,17.5,45.5,29c2.5,8-3.5,8-7.5,13.5c4,4.5,10,6,15,8.5c-8.5,4.5-21,0.5-30-0.5
				c13.5,4.5,29,5.5,43,6.5c-4-1-8.5,0-12-2c3.5-2.5,8-2,12-2c-9.5-3.5-19.5-6.5-29.5-7c6.5,2,12.5,5.5,19,7c-10-2-21,0-31-0.5
				c14,1.5,28.5,2.5,42.5,3"/>
		</g>
		<g>
			<path class="st2" d="M183.5,169.3"/>
		</g>
		<g>
			<path class="st2" d="M174.5,186.3c-5.5,0.5-11,0.5-16.5,0.5c13,4,28,2,41.5,2.5c7,0,14.5,1.5,21.5,2s27,5,29.5,3.5"/>
		</g>
		<g>
			<path class="st2" d="M181.5,16.3c-3.5,3.5-9,7.5-11.5,11"/>
		</g>
		<g>
			<path class="st2" d="M166,17.8c-8,4-20,0.5-28.5,4"/>
		</g>
		<g>
			<path class="st2" d="M194.5,23.8c9.5-4.5,24-6,34.5-7.5"/>
		</g>
		<g>
			<path class="st2" d="M193.5,18.8c-7.5,2.5-14.5,4.5-22,7"/>
		</g>
		<g>
			<path class="st3" d="M333.8,204.6c-3.7,0.9-7.5,2.7-11.1,2.5c-24.8-1.6-47.4-2-72.2-3.2c-36.7,1.7-66.3-0.6-98.8-1.5
				c-33.6-0.9-67.7-5.5-101.3-6c-2.1,0-4.3,0.2-6.5,0.3c0,0.4,0,0.9,0,1.3c2.7,0.8,5.3,1.7,9,2.8c-2.2,0.4-3.2,0.5-4.3,0.8
				c-10.1,2.4-29.2-4.3-27.2-9.5c1.6,0.2,3.2,0.3,4.8,0.5c0.3-0.6,0.6-1.3,0.8-1.9c-2.9-1.7-6-3.2-8.7-5.3c-2-1.6-3.5-4-4.9-5.6
				c-4.9-3.6-10-7.4-15-11.1c0.4-0.5,0.7-0.9,1.1-1.3c4.7,2.4,9.4,4.7,14.2,7.1c0.4-0.7,0.7-1.3,1-2c-3-1.9-6.1-3.7-9.1-5.5
				c0.2-0.6,0.4-1.3,0.5-1.9c2.4,0.3,4.9,0.6,7.3,0.8c0.3-0.7,0.6-1.4,0.9-2.2c-2.6-0.8-5.2-1.7-7.8-2.3c-3.9-0.9-7.8-1.5-11.8-2.3
				c0.2-0.5,0.4-0.9,0.6-1.4c5.4-1.3,10.9-2.5,16.3-3.8c-2.7-1.9-5.4-3.8-6.8-4.9c4.2-1.8,7.1-3.1,10-4.4c0-1.2-0.1-2.3-0.1-3.5
				c-8.5,4.2-11.1-1.8-14.5-6.4c3.7,0.3,7.5,0.5,13.1,0.9c-4.2-5.6-7.3-9.8-10.9-14.6c7.7,0.4,14.4,0.7,21.1,1.1
				c0-0.5,0.1-0.9,0.1-1.4c-8.1-1.3-16.3-2.5-24.9-3.9c3.5-0.8,6.5-1.5,9.9-2.3c-6.3-4.3-3.7-6.8,1.2-8.9c-2.6-1.7-5.1-3.3-8-5.1
				c1.2-0.9,2.3-1.7,3.4-2.5c-1.3-0.6-2.7-1.2-4-1.8c1.3-1.7,2.6-3.4,4.1-5.4c-3-0.3-5.9-0.6-7.2-0.7c2.2-1.3,5.9-2.6,8.4-5.2
				c2-2.1,2.4-5.7,3.6-8.8c-0.3-0.1-1.8-0.4-3-0.6c3.6-1,7.1-2,10.7-3c-3.2-1.5-6.1-1.7-9-1.4c-3.4,0.4-8,3.7-9-2.1
				c-1-6.1-6.2-13.4,2.8-18.1c0.4-0.2,0.6-0.8,1.3-1.9c-2.8,0.7-4.6,1.2-6.5,1.6c-1.3-6.6,10.4-10.7,1.5-17.9
				c3.5-0.8,6.4-1.5,9.5-2.2c-0.9-1.6-1.4-2.6-2-3.7c4.3-0.9,8.3-1.7,12.5-2.5c-1.2-0.9-2.2-1.6-3.2-2.2c0.9-0.7,1.7-2,2.7-2.2
				c9-1.8,18-3.5,27-5.2c0-0.8-0.1-1.6-0.1-2.4c-12.3,1.1-24.7,2.3-37,3.4c-0.1-0.9-0.2-1.9-0.3-2.8c8.3-0.9,16.7-2.4,25-2.6
				C61.2,9.5,89.4,9,117.6,8.7c9-0.1,18,1,27,1.1c7.2,0.1,14.3-0.9,21.5-0.8c19.5,0.4,38.9,1,58.4,1.9c58.7,2.7,117.4,0.8,176-3.4
				c9.4-0.7,18.9-0.1,28.3-0.1c0,0.3,0,0.6,0,0.9c-45.5,2-91,4.1-136.5,6.2c11.3,2.3,22.7,3.5,34,3.8c14.9,0.4,29.8,0,44.7,0
				c1.3,0,2.7,0.3,4,0.5c4.5,0.8,9,2.4,13.5,2.2c19.2-0.8,38.4-2.1,57.6-3.1c1.9-0.1,3.9,0.9,5.8,1.4c-0.1,1-0.3,2-0.4,3
				c-76.2,2-152.4,4.1-228.6,6.1c58.4,4.6,117,2.9,175.6,2.5c-2.3,0.3-4.5,0.7-7.4,1.1c3.4,0.4,6.2,0.7,9,1.1c0,0.9,0,1.8,0,2.7
				c-13.4,0-26.8,0-40.2,0c0,1.1,0.1,2.1,0.1,3.2c23,0,45.9,0,68.9,0c0,0.5,0,0.9,0,1.4c-2.6,1-5.3,2-7.9,3c0,0.3,0.1,0.6,0.1,0.9
				c7.3,0,14.5,0,21.7,0c0,0.2,0,0.4,0,0.6c-11.8,0.8-23.6,1.6-35.4,2.4c0,1,0,1.9,0,2.9c17.2,0,34.3,0,51.5,0c0,1.1,0,2.2,0,3.3
				c-23.4,1.2-46.8,2.5-70.1,3.7c0,0.3,0.1,0.7,0.1,1c25.9,0,51.8,0,77.7,0c0,0.7,0,1.4,0,2.1c-11,0-22.1,0-33.1,0
				c0,0.3,0,0.5,0,0.8c25.8,0.8,51.5,1.7,77.3,2.5c-0.1,0.5-0.1,0.9-0.2,1.4c-22.9,1.4-45.8,2.8-68.7,4.1c0,1.1,0.1,2.2,0.1,3.2
				c12.7,0,25.3,0,38,0c0,0.5-0.1,0.9-0.1,1.4c-18.7,1.5-37.3,3-55.9,4.4c0,0.5,0.1,1,0.2,1.6c15.9,0,31.7,0,47.6,0
				c0,0.5,0.1,0.9,0.1,1.4c-14.7,1.3-29.3,2.6-44,3.8c0,0.5,0,1,0,1.5c13.5,0,26.9,0,40.4,0c0,0.3,0.1,0.7,0.2,1c-11,2-22,4-33,6
				c0.1,0.6,0.1,1.2,0.2,1.8c13.9-0.6,27.8-1.2,41.7-1.9c0,0.4,0.1,0.8,0.2,1.2c-1.9,0.4-3.9,0.7-5.8,1.1c0.1,0.5,0.1,1,0.2,1.4
				c7,0,14.1,0,21.2,0c0,0.1,0,0.2,0,0.2c-21.1,1.5-42.2,3.1-63.3,4.6c0,0.5,0.1,1,0.1,1.6c23.9,0,47.8,0,71.7,0c0,0.4,0,0.8,0,1.1
				c-7.6,0.4-15.3,0.8-24.2,1.2c15.6,2.7,29.6,5.1,44.7,7.7C456,124.7,391,126,326.1,130.3c5.6,1.2,11.3,1.1,16.9,1.3
				c11.3,0.4,22.5,1.1,33.8,1.6c7,0.3,15-1.5,20.8,1.3c7.1,3.4,13.6,3.5,20.8,3.3c8.6-0.3,17.3-0.1,25.9-0.1c0,0.7,0,1.4,0,2.1
				c-11.7,1-23.4,2-35.1,3c0,0.6,0,1.2,0,1.8c20.5,0,41,0,61.5,0c0,0.7,0.1,1.4,0.1,2c-3.6,0.8-7.2,1.7-10.8,2.5
				c0.1,0.4,0.1,0.8,0.2,1.2c8.2,0,16.4,0,24.6,0c0,0.4,0.1,0.9,0.1,1.3c-16.9,2.6-33.9,5.1-50.8,7.7c5,1.7,9.8,2.5,14.5,2.2
				c8.5-0.6,17-2,25.5-2.8c7-0.6,14.3-3.3,21.1,1.8c-64,12.1-128.8,5.2-192.8,11c33.4,1.5,66.8,3,100.1,4.5c0,0.6,0,1.3,0,1.9
				c-21.7,0-43.3,0-65.2,0c0.3,2,0.6,3.9,0.9,5.8c13.4,0,26.6-0.3,39.9,0.1c7.6,0.2,15.2,2.1,22.8,2.3c6.3,0.2,12.5-1,18.8-1.5
				c6.4-0.4,12.8-1.1,19.2-0.9c6,0.2,12,1.4,19.1,2.3c-6.5,1-11.7,2.4-17,2.6c-25.3,0.9-50.7,1.6-76,2.1c-9.9,0.2-19.9,0-29.8-0.5
				c-7.5-0.3-15-1.6-22.5-2.1c-11.6-0.8-23.3-1.5-34.9-1.7c-12.4-0.3-24.8-0.1-37.3-0.1c0,1.2,0,2.4,0,3.6c23.6,0,47.3,0,70.9,0
				c0,0.8-0.1,1.6-0.1,2.5c-25.2,0-50.4,0.1-75.6,0c-25-0.1-49.9-6.2-75-1.2c16.2,1.5,32.4,0.7,48.6,1.6c32.1,1.8,64.1,4.4,96.2,6.8
				c8.7,0.7,17.5,1.7,26.2,2.6C332.5,203,333.1,203.8,333.8,204.6z M258.6,21c-13.2-0.2-26.3-1.7-39.5-2.3
				c-16.5-0.7-33-1.6-49.5-1.2c-9.9,0.3-19.8,2.9-29.6,5.7c61.4,0,122.8,0,184.2,0c0-0.7,0-1.5,0-2.2
				C302.3,21.1,280.4,21.4,258.6,21z M129.5,189.7c0-0.8,0-1.6,0-2.4c-19.4,1.3-38.6-3.5-58-1.5c0,1.3,0,2.6,0,4
				C90.8,189.7,110.2,189.7,129.5,189.7z M235.5,187.8c0-0.5,0-1,0-1.5c-6.4,0-12.7,0-19.1,0c0,0.5,0,1-0.1,1.5
				C222.7,187.8,229.1,187.8,235.5,187.8z M393.2,80.3c0,0.7,0.1,1.5,0.1,2.2c7.8-0.5,15.6-0.9,23.5-1.4c-0.1-0.7-0.1-1.5-0.2-2.2
				C408.8,79.4,401,79.8,393.2,80.3z"/>
		</g>
	</g>
</g>
<g id="Layer_2">
	<path class="st1" d="M-209,19.3c-0.8,0-1.6,0-2.4,0c2.9,0.7,6,0.2,8.9,1.6c-0.4,0.1-0.7,0.2-1,0.2c0,0.1,0,0.1,0,0.2
		c-1.1,0-2.1,0-3.2,0c0,0,0,0.1,0,0.1c0.6,0.1,1.2,0.2,1.8,0.2c0,0,0,0,0,0.1c-0.4,0-0.8,0-1.2,0c0,0.1,0,0.1,0,0.2
		c1.1,0.1,2.2,0.3,3.3,0.4c0,0.1,0,0.2,0,0.2c-0.8-0.1-1.6-0.2-2.4-0.2c-1.1,0-2.2,0-3.3,0c-0.6,0-1.3,0.2-1.9,0.2
		c-8.2,0.1-16.4,0.1-24.6,0.1c-2.9,0-5.8,0-8.8,0c-0.5,0-1-0.1-1.7-0.1c0.2-0.4,0.4-0.6,0.6-1c-0.4-0.2-1-0.3-1.4-0.5
		c-0.3-0.2-0.4-0.6-0.8-1.1c1.4,0.1,2.7,0.1,2.8-1.6c-0.1,0-0.3-0.2-0.5-0.3c0,0,0-0.1,0-0.1c1.5-0.1,3-0.1,4.5-0.2
		c0-0.1,0-0.1,0-0.2c-1.6,0-3.2,0-4.7,0c0.1-0.5,0.1-1,0.2-1.4c-1-0.2-2.4,0.2-2.8-1.3c-0.1-0.3-0.9-1.1,0.3-1.5
		c-0.2-0.1-0.4-0.2-0.7-0.3c0.3-0.2,0.5-0.4,0.7-0.6c-0.7-0.2-0.4-0.6-0.4-1.1c0-0.5-0.2-1-0.4-1.4c0.5-0.2,0.8-0.3,1.1-0.5
		c0,0,0-0.1,0-0.1c-0.2,0-0.4-0.1-0.7-0.1c0.4-0.3,0.8-0.6,1.2-0.9c-0.4-0.2-0.6-0.2-0.9-0.3c0,0,0-0.1,0-0.1c0.4,0,0.7-0.1,1.1-0.1
		c0,0,0-0.1,0-0.1c-0.3-0.1-0.6-0.2-0.9-0.3c0.5-0.6,0.9-1.2,1.9-1.2c8.3,0,16.6,0,24.9,0c1.6,0,3.1,0.1,4.7,0.3c-0.7,0-1.3,0-2,0
		c0,0,0,0.1,0,0.1c2.3,0,4.6,0,7.1,0c-0.7,0-1.3,0.1-1.9,0.1c1.7,0.1,3.5,0.2,5.2,0.3c0,0.1,0,0.2,0,0.3c-0.5,0-1,0-1.4,0
		c0,0,0,0.1,0,0.1c2.2,0.2,4.3,0.5,6.5,0.7c0,0,0,0,0,0.1c-6.8-0.2-13.5-0.4-20.3-0.6c0,0.1,0,0.1,0,0.2c8.2,0.3,16.4,0.2,24.5,2
		c-2.8-0.2-5.7-0.3-8.5-0.5c0,0.1,0,0.1,0,0.2c0.2,0.1,0.5,0.1,0.7,0.2c1.1,0.1,2.2,0.1,3.2,0.3c0.9,0.1,1.8,0.5,2.7,0.7
		c1.3,0.3,2.7,0.5,4,0.7c0.9,0.2,1.8,0.1,2.4,0.9c0.2,0.2,0.8,0.2,1.2,0.3c0,0.1,0,0.2,0,0.2c-0.3,0-0.5,0-0.8-0.1
		c-0.9,0-2-0.4-2.8-0.1c-1.5,0.6-2.9-0.1-4.4,0.2c1,0.1,2.1,0.3,3.1,0.4c0,0,0,0.1,0,0.1c-0.5,0-1.1,0-1.6,0c0,0,0,0.1,0,0.1
		c0.4,0.1,0.8,0.1,1.3,0.2c0,0,0,0,0,0c-2.4,0-4.7,0-7.1,0c0,0.1,0,0.2,0,0.3c1.7,0.2,3.5,0.5,5.2,0.7c-1.6-0.2-3.1,0.5-4.7,0
		c-0.1,0-0.3,0-0.4,0c-0.1,0-0.1,0.1-0.2,0.2c0.1,0.1,0.2,0.2,0.4,0.4c-0.3,0-0.6,0-1.1,0.1c0.3,0.1,0.4,0.2,0.6,0.2
		c0,0.1-0.1,0.1-0.1,0.2c-0.7,0-1.3,0-2,0c0,0.1,0,0.1,0,0.2c0.7,0.1,1.3,0.3,1.9,0.4c-12.3-0.8-24.6-0.8-36.9,0c1.3,0,2.7,0,4,0
		c3.8,0,7.7,0,11.5,0c3.1,0,6.3,0,9.4,0c0.6,0,1.2,0.2,1.8,0.3c0.5,0.1,1.1,0,1.7,0c0.6,1,1.8,0.3,2.7,0.6c0,0.1,0,0.1,0,0.2
		c-6.1,0.1-12.2,0.2-18.3,0.3c6.4,0.4,12.7-0.1,19.1,0.5c0,0.1,0,0.2,0,0.3c-3.3,0-6.5,0-9.8,0c0,0.1,0,0.1,0,0.2
		c1.4,0.1,2.8,0.1,4.3,0.2c2,0.1,4,0.1,6,0.2C-209.4,19.1-209.2,19.2-209,19.3L-209,19.3z M-232.7,17.9c0,0,0-0.1,0-0.1
		c-1.1,0-2.2,0-3.2,0c0,0,0,0.1,0,0.1C-234.9,17.9-233.8,17.9-232.7,17.9z"/>
	<path class="st1" d="M-246.4,5.6c3.6-0.8,7.2,0.1,10.7-0.2c0,0.1,0,0.2,0,0.2C-239.3,5.6-242.8,5.6-246.4,5.6z"/>
</g>
</svg>
